<?xml version="1.0"?>
<svg xmlns="http://www.w3.org/2000/svg" xmlns:xlink="http://www.w3.org/1999/xlink" version="1.1" id="Capa_1" x="0px" y="0px" viewBox="0 0 31.683 31.683" style="enable-background:new 0 0 31.683 31.683;" xml:space="preserve" width="512px" height="512px"><g><g>
	<path d="M21.497,25.67H7.012V3.893h14.484v4.691h1.727V2.308C23.223,1.034,22.192,0,20.919,0H7.589   C6.313,0,5.282,1.034,5.282,2.308v27.069c0,1.273,1.031,2.306,2.307,2.306h13.33c1.273,0,2.305-1.033,2.305-2.306V19.212h-1.727   V25.67z M19.399,1.444c0.326,0,0.59,0.264,0.59,0.59s-0.264,0.59-0.59,0.59s-0.59-0.264-0.59-0.59S19.073,1.444,19.399,1.444z    M11.161,1.667h6.186v0.676h-6.186V1.667z M17.067,29.223h-5.629v-1.73h5.629V29.223z" data-original="#000000" class="active-path" data-old_color="#aaaaaa" fill="#00a3ff"/>
	<path d="M13.05,18.296h1.555l-1.555,3.695l4.537-3.695h8.814V9.305H13.05V18.296z" data-original="#000000" class="active-path" data-old_color="#aaaaaa" fill="#00a3ff"/>
	<g>
	</g>
	<g>
	</g>
	<g>
	</g>
	<g>
	</g>
	<g>
	</g>
	<g>
	</g>
	<g>
	</g>
	<g>
	</g>
	<g>
	</g>
	<g>
	</g>
	<g>
	</g>
	<g>
	</g>
	<g>
	</g>
	<g>
	</g>
	<g>
	</g>
</g></g> </svg>
